<svg width="47" height="39" viewBox="0 0 47 39" fill="none" xmlns="http://www.w3.org/2000/svg">
<path fill-rule="evenodd" clip-rule="evenodd" d="M0.5 6.57653C0.5 -0.730341 11.0866 -1.69109 12.402 5.49642L14.5327 17.1391C14.9328 19.3258 18.0672 19.3258 18.4673 17.1391L20.598 5.49642C21.9134 -1.69111 32.5 -0.730326 32.5 6.57653V32.9992C32.5 34.1038 33.3954 34.9992 34.5 34.9992H47V38.9992H34.5C31.1863 38.9992 28.5 36.3129 28.5 32.9992V6.57653C28.5 4.14088 24.9711 3.82068 24.5327 6.21649L22.402 17.8592C21.2015 24.4191 11.7985 24.4191 10.598 17.8592L8.46733 6.21649C8.02887 3.82066 4.5 4.14089 4.5 6.57653V38.9992H0.5V6.57653Z" fill="#A6ADBB"/>
</svg>
